# xmcd CD database file
#
# Track frame offsets:
#	150
#	39252
#	53733
#	68778
#	86050
#	99431
#	118722
#	133917
#	149969
#	166806
#	183054
#	197936
#	212959
#
# Disc length: 3017 seconds
#
# Revision: 0
# Processed by: cddbd v1.5.1PL2 Copyright (c) Steve Scherf et al.
# Submitted via: CDex 1.51
#
DISCID=c20bc70d
DTITLE=Mulheres Perdidas - Em plena lua de mel
DYEAR=2005
DGENRE=Country
TTITLE0=Resumo
TTITLE1=Se quiser é assim
TTITLE2=Volta pra mim
TTITLE3=Nos bares da cidade
TTITLE4=De que vale a riqueza
TTITLE5=Eu não sou de pedra (Perdoa-me)
TTITLE6=Linda demais
TTITLE7=Volte amor
TTITLE8=Em plena lua de mel
TTITLE9=Não me diga não (Where are you now)
TTITLE10=Telefona
TTITLE11=Explica-me
TTITLE12=A perigo
EXTD=YEAR: 2005
EXTT0=
EXTT1=
EXTT2=
EXTT3=
EXTT4=
EXTT5=
EXTT6=
EXTT7=
EXTT8=
EXTT9=
EXTT10=
EXTT11=
EXTT12=
PLAYORDER=
